<svg width="266" height="85" viewBox="0 0 266 85" fill="none" xmlns="http://www.w3.org/2000/svg">
<path fill-rule="evenodd" clip-rule="evenodd" d="M10.6021 42.3559C10.6021 51.9526 16.756 56.8061 25.9916 56.8061H39.9595V52.6801L32.4482 46.3069V51.4644H26.5785C19.8651 51.4644 18.3243 47.845 18.3243 42.2546C18.3243 36.038 20.6814 33.1093 27.2481 33.1093H30.2929V27.6755H24.9277C16.1049 27.6755 10.6021 33.5237 10.6021 42.3559ZM51.708 56.8061V45.9385L39.932 35.9735V27.6847H32.4482V38.6444L44.1875 48.7015V56.8061H51.708ZM51.708 38.0549V33.1001H57.6694C64.181 33.1001 65.7768 37.0142 65.7768 42.7704C65.8044 50.0277 63.1722 51.4644 56.0552 51.4644H53.7074V56.8061C54.2554 56.8061 54.8081 56.8116 55.3636 56.817H55.3639C59.7629 56.8604 64.3383 56.9054 68.1981 54.2642C72.2885 51.5013 73.5541 46.6385 73.5541 41.9507C73.5541 33.5329 69.6196 27.6755 59.2193 27.6755H44.1875V32.0133L51.708 38.0549ZM0 0H84.1562V0.000120759H0.000244141V84.5092H0V0ZM84.1562 53V84.5092H0.000244141V84.5094H84.1564V53H84.2131C84.8616 53 85.4651 52.8926 86.0237 52.6777C86.5823 52.459 87.0549 52.1621 87.4417 51.7871C87.8284 51.4121 88.1311 50.9668 88.3499 50.4512C88.5686 49.9355 88.678 49.3848 88.678 48.7988C88.678 48.209 88.5686 47.6562 88.3499 47.1406C88.1311 46.6211 87.8284 46.1758 87.4417 45.8047C87.0549 45.4297 86.5823 45.1348 86.0237 44.9199C85.4651 44.7051 84.8616 44.5977 84.2131 44.5977H84.1564V40.0743C84.4221 40.1224 84.6969 40.1465 84.9807 40.1465C85.4885 40.1465 85.9514 40.084 86.3694 39.959C86.7913 39.8301 87.1545 39.6621 87.4592 39.4551C87.7678 39.248 88.0784 38.9824 88.3909 38.6582L87.4417 37.6973C87.0471 38.0645 86.6663 38.3379 86.2991 38.5176C85.9358 38.6973 85.512 38.7871 85.0276 38.7871C84.7168 38.7871 84.4264 38.7427 84.1564 38.6539V32.9478C84.43 32.8563 84.7204 32.8105 85.0276 32.8105C85.4807 32.8105 85.8948 32.9004 86.2698 33.0801C86.6448 33.2598 87.0159 33.5176 87.3831 33.8535L88.3264 32.7637C87.885 32.3418 87.4065 32.0195 86.8909 31.7969C86.3792 31.5703 85.762 31.457 85.0393 31.457C84.7357 31.457 84.4414 31.4846 84.1564 31.5396V0.000120759H84.1562V31.5397C83.8583 31.5973 83.5707 31.685 83.2932 31.8027C82.7502 32.0293 82.2913 32.3379 81.9163 32.7285C81.5413 33.1191 81.2463 33.5801 81.0315 34.1113C80.8167 34.6426 80.7092 35.2051 80.7092 35.7988C80.7092 36.6035 80.8928 37.3379 81.26 38.002C81.6311 38.666 82.1428 39.1895 82.7952 39.5723C83.2187 39.8194 83.6724 39.9867 84.1562 40.0743V44.5977H81.0784V53H84.1562ZM84.1562 51.6582V53H84.1564V51.6582H84.2131C85.0881 51.6582 85.7932 51.3926 86.3284 50.8613C86.8635 50.3301 87.1311 49.6426 87.1311 48.7988C87.1311 47.9668 86.8616 47.2832 86.3225 46.748C85.7874 46.2129 85.0842 45.9453 84.2131 45.9453H84.1564V44.5977H84.1562V45.9453H82.5549V51.6582H84.1562ZM84.1562 51.6582V45.9453H84.1564V51.6582H84.1562ZM84.1562 38.6538V40.0743C84.1563 40.0743 84.1564 40.0743 84.1564 40.0743V38.6539C84.1564 38.6539 84.1563 38.6539 84.1562 38.6538ZM84.1562 32.9479V31.5397C84.1563 31.5397 84.1564 31.5397 84.1564 31.5396V32.9478C84.1564 32.9478 84.1563 32.9478 84.1562 32.9479ZM84.1562 32.9479C83.9637 33.0123 83.7796 33.0993 83.6038 33.209C83.178 33.4746 82.8459 33.8359 82.6077 34.293C82.3733 34.7461 82.2561 35.248 82.2561 35.7988C82.2561 36.6309 82.5198 37.3379 83.0471 37.9199C83.3677 38.2714 83.7374 38.516 84.1562 38.6538V32.9479ZM89.9377 31.5977H96.1663V32.9219H91.4143V35.1016H95.6272V36.4258H91.4143V38.6816H96.2249V40H89.9377V31.5977ZM97.9768 31.5977H99.3479L103.848 37.4102V31.5977H105.301V40H104.065L99.4299 34.0234V40H97.9768V31.5977ZM106.86 32.9688V31.5977H113.674V32.9688H111.014V40H109.526V32.9688H106.86ZM115.239 31.5977H118.983C119.955 31.5977 120.719 31.8398 121.274 32.3242C121.828 32.8086 122.106 33.459 122.106 34.2754C122.106 34.9395 121.926 35.4863 121.567 35.916C121.207 36.3418 120.719 36.6426 120.102 36.8184L122.369 40H120.629L118.543 37.0703H116.715V40H115.239V31.5977ZM116.715 35.7637H118.877C119.405 35.7637 119.824 35.6348 120.137 35.377C120.449 35.1191 120.606 34.7715 120.606 34.334C120.606 33.8887 120.453 33.5469 120.149 33.3086C119.844 33.0664 119.416 32.9453 118.865 32.9453H116.715V35.7637ZM123.19 40L126.887 31.5391H128.258L131.949 40H130.391L129.541 37.9727H125.569L124.701 40H123.19ZM126.108 36.666H129.002L127.549 33.3027L126.108 36.666ZM133.391 31.5977H134.867V38.6582H139.285V40H133.391V31.5977ZM143.856 38.7754L144.746 37.7207C145.164 38.084 145.584 38.3574 146.006 38.541C146.428 38.7207 146.891 38.8105 147.395 38.8105C147.852 38.8105 148.213 38.7148 148.479 38.5234C148.748 38.3281 148.883 38.0645 148.883 37.7324C148.883 37.5215 148.834 37.3477 148.737 37.2109C148.639 37.0703 148.451 36.9375 148.174 36.8125C147.901 36.6836 147.506 36.5586 146.99 36.4375C146.506 36.3242 146.106 36.207 145.789 36.0859C145.473 35.9609 145.186 35.8027 144.928 35.6113C144.674 35.4199 144.487 35.1875 144.365 34.9141C144.248 34.6367 144.19 34.3047 144.19 33.918C144.19 33.1992 144.457 32.6133 144.992 32.1602C145.531 31.707 146.221 31.4805 147.061 31.4805C148.221 31.4805 149.237 31.832 150.108 32.5352L149.317 33.6543C148.539 33.0762 147.78 32.7871 147.037 32.7871C146.615 32.7871 146.281 32.8828 146.035 33.0742C145.789 33.2656 145.666 33.5098 145.666 33.8066C145.666 34.0293 145.721 34.2129 145.83 34.3574C145.944 34.502 146.141 34.6348 146.422 34.7559C146.703 34.877 147.115 35.002 147.658 35.1309C148.592 35.3574 149.276 35.6582 149.709 36.0332C150.143 36.4043 150.36 36.9297 150.36 37.6094C150.36 38.3828 150.082 38.9941 149.528 39.4434C148.977 39.8926 148.254 40.1172 147.36 40.1172C146.024 40.1172 144.856 39.6699 143.856 38.7754ZM152.094 31.5977H158.323V32.9219H153.571V35.1016H157.783V36.4258H153.571V38.6816H158.381V40H152.094V31.5977ZM159.764 35.7988C159.764 35.2051 159.871 34.6426 160.086 34.1113C160.301 33.5801 160.596 33.1191 160.971 32.7285C161.346 32.3379 161.805 32.0293 162.348 31.8027C162.891 31.5723 163.473 31.457 164.094 31.457C164.817 31.457 165.434 31.5703 165.946 31.7969C166.461 32.0195 166.94 32.3418 167.381 32.7637L166.438 33.8535C166.071 33.5176 165.699 33.2598 165.324 33.0801C164.949 32.9004 164.535 32.8105 164.082 32.8105C163.559 32.8105 163.084 32.9434 162.658 33.209C162.233 33.4746 161.901 33.8359 161.662 34.293C161.428 34.7461 161.311 35.248 161.311 35.7988C161.311 36.6309 161.574 37.3379 162.102 37.9199C162.629 38.498 163.289 38.7871 164.082 38.7871C164.567 38.7871 164.99 38.6973 165.354 38.5176C165.721 38.3379 166.102 38.0645 166.496 37.6973L167.446 38.6582C167.133 38.9824 166.823 39.248 166.514 39.4551C166.209 39.6621 165.846 39.8301 165.424 39.959C165.006 40.084 164.543 40.1465 164.035 40.1465C163.235 40.1465 162.506 39.9551 161.85 39.5723C161.198 39.1895 160.686 38.666 160.315 38.002C159.948 37.3379 159.764 36.6035 159.764 35.7988ZM168.864 36.4375V31.5977H170.34V36.3789C170.34 37.1484 170.526 37.7402 170.897 38.1543C171.272 38.5684 171.793 38.7754 172.461 38.7754C173.125 38.7754 173.643 38.5762 174.014 38.1777C174.389 37.7793 174.576 37.1992 174.576 36.4375V31.5977H176.053V36.3613C176.053 37.5879 175.731 38.5234 175.086 39.168C174.446 39.8125 173.563 40.1348 172.438 40.1348C171.324 40.1348 170.449 39.8184 169.813 39.1855C169.18 38.5527 168.864 37.6367 168.864 36.4375ZM178.074 31.5977H181.819C182.791 31.5977 183.555 31.8398 184.11 32.3242C184.664 32.8086 184.942 33.459 184.942 34.2754C184.942 34.9395 184.762 35.4863 184.403 35.916C184.043 36.3418 183.555 36.6426 182.938 36.8184L185.205 40H183.465L181.379 37.0703H179.551V40H178.074V31.5977ZM179.551 35.7637H181.713C182.24 35.7637 182.66 35.6348 182.973 35.377C183.285 35.1191 183.442 34.7715 183.442 34.334C183.442 33.8887 183.289 33.5469 182.985 33.3086C182.68 33.0664 182.252 32.9453 181.701 32.9453H179.551V35.7637ZM186.834 31.5977H188.311V40H186.834V31.5977ZM189.957 32.9688V31.5977H196.772V32.9688H194.112V40H192.623V32.9688H189.957ZM198.424 31.5977H199.901V40H198.424V31.5977ZM202.145 31.5977H208.373V32.9219H203.621V35.1016H207.834V36.4258H203.621V38.6816H208.432V40H202.145V31.5977ZM209.621 38.7754L210.512 37.7207C210.93 38.084 211.35 38.3574 211.772 38.541C212.194 38.7207 212.656 38.8105 213.16 38.8105C213.617 38.8105 213.979 38.7148 214.244 38.5234C214.514 38.3281 214.649 38.0645 214.649 37.7324C214.649 37.5215 214.6 37.3477 214.502 37.2109C214.405 37.0703 214.217 36.9375 213.94 36.8125C213.666 36.6836 213.272 36.5586 212.756 36.4375C212.272 36.3242 211.871 36.207 211.555 36.0859C211.239 35.9609 210.951 35.8027 210.694 35.6113C210.44 35.4199 210.252 35.1875 210.131 34.9141C210.014 34.6367 209.955 34.3047 209.955 33.918C209.955 33.1992 210.223 32.6133 210.758 32.1602C211.297 31.707 211.987 31.4805 212.826 31.4805C213.987 31.4805 215.002 31.832 215.873 32.5352L215.082 33.6543C214.305 33.0762 213.545 32.7871 212.803 32.7871C212.381 32.7871 212.047 32.8828 211.801 33.0742C211.555 33.2656 211.432 33.5098 211.432 33.8066C211.432 34.0293 211.487 34.2129 211.596 34.3574C211.709 34.502 211.906 34.6348 212.188 34.7559C212.469 34.877 212.881 35.002 213.424 35.1309C214.358 35.3574 215.041 35.6582 215.475 36.0332C215.908 36.4043 216.125 36.9297 216.125 37.6094C216.125 38.3828 215.848 38.9941 215.293 39.4434C214.742 39.8926 214.02 40.1172 213.125 40.1172C211.789 40.1172 210.621 39.6699 209.621 38.7754ZM90.4651 44.5977H96.6936V45.9219H91.9417V48.1016H96.1545V49.4258H91.9417V51.6816H96.7522V53H90.4651V44.5977ZM98.5042 44.5977H101.821C102.797 44.5977 103.573 44.8555 104.147 45.3711C104.721 45.8828 105.008 46.5703 105.008 47.4336C105.008 48.043 104.854 48.5684 104.545 49.0098C104.24 49.4473 103.838 49.7715 103.338 49.9824C102.842 50.1934 102.28 50.2988 101.651 50.2988H99.9807V53H98.5042V44.5977ZM99.9807 48.9688H101.698C102.248 48.9688 102.688 48.8301 103.016 48.5527C103.344 48.2715 103.508 47.9023 103.508 47.4453C103.508 46.9609 103.346 46.5898 103.022 46.332C102.701 46.0742 102.26 45.9453 101.698 45.9453H99.9807V48.9688ZM106.151 48.7988C106.151 48.2129 106.26 47.6562 106.479 47.1289C106.698 46.5977 106.998 46.1367 107.381 45.7461C107.764 45.3516 108.231 45.0391 108.781 44.8086C109.332 44.5742 109.922 44.457 110.551 44.457C111.184 44.457 111.774 44.5723 112.321 44.8027C112.867 45.0293 113.33 45.3379 113.709 45.7285C114.092 46.1191 114.391 46.5801 114.606 47.1113C114.824 47.6426 114.934 48.2051 114.934 48.7988C114.934 49.3848 114.824 49.9434 114.606 50.4746C114.387 51.0059 114.086 51.4688 113.703 51.8633C113.321 52.2539 112.852 52.5664 112.297 52.8008C111.746 53.0312 111.156 53.1465 110.528 53.1465C109.688 53.1465 108.932 52.9512 108.26 52.5605C107.588 52.166 107.069 51.6387 106.701 50.9785C106.334 50.3184 106.151 49.5918 106.151 48.7988ZM107.698 48.7988C107.698 49.3418 107.817 49.8418 108.055 50.2988C108.297 50.752 108.637 51.1133 109.074 51.3828C109.516 51.6523 110.008 51.7871 110.551 51.7871C111.094 51.7871 111.582 51.6543 112.016 51.3887C112.453 51.1191 112.791 50.7578 113.03 50.3047C113.268 49.8516 113.387 49.3496 113.387 48.7988C113.387 48.2559 113.266 47.7578 113.024 47.3047C112.781 46.8477 112.44 46.4844 111.998 46.2148C111.561 45.9453 111.071 45.8105 110.528 45.8105C109.985 45.8105 109.494 45.9453 109.057 46.2148C108.623 46.4805 108.287 46.8398 108.049 47.293C107.815 47.7461 107.698 48.248 107.698 48.7988ZM116.153 51.7754L117.043 50.7207C117.461 51.084 117.881 51.3574 118.303 51.541C118.725 51.7207 119.188 51.8105 119.692 51.8105C120.149 51.8105 120.51 51.7148 120.776 51.5234C121.045 51.3281 121.18 51.0645 121.18 50.7324C121.18 50.5215 121.131 50.3477 121.033 50.2109C120.936 50.0703 120.748 49.9375 120.471 49.8125C120.198 49.6836 119.803 49.5586 119.287 49.4375C118.803 49.3242 118.403 49.207 118.086 49.0859C117.77 48.9609 117.483 48.8027 117.225 48.6113C116.971 48.4199 116.783 48.1875 116.662 47.9141C116.545 47.6367 116.487 47.3047 116.487 46.918C116.487 46.1992 116.754 45.6133 117.289 45.1602C117.828 44.707 118.518 44.4805 119.358 44.4805C120.518 44.4805 121.533 44.832 122.405 45.5352L121.614 46.6543C120.836 46.0762 120.076 45.7871 119.334 45.7871C118.912 45.7871 118.578 45.8828 118.332 46.0742C118.086 46.2656 117.963 46.5098 117.963 46.8066C117.963 47.0293 118.018 47.2129 118.127 47.3574C118.24 47.502 118.438 47.6348 118.719 47.7559C119 47.877 119.412 48.002 119.955 48.1309C120.889 48.3574 121.573 48.6582 122.006 49.0332C122.44 49.4043 122.656 49.9297 122.656 50.6094C122.656 51.3828 122.379 51.9941 121.824 52.4434C121.274 52.8926 120.551 53.1172 119.656 53.1172C118.321 53.1172 117.153 52.6699 116.153 51.7754ZM124.479 44.5977H125.955V53H124.479V44.5977ZM127.602 45.9688V44.5977H134.416V45.9688H131.756V53H130.268V45.9688H127.602ZM135.155 48.7988C135.155 48.2129 135.264 47.6562 135.483 47.1289C135.701 46.5977 136.002 46.1367 136.385 45.7461C136.768 45.3516 137.235 45.0391 137.785 44.8086C138.336 44.5742 138.926 44.457 139.555 44.457C140.188 44.457 140.778 44.5723 141.324 44.8027C141.871 45.0293 142.334 45.3379 142.713 45.7285C143.096 46.1191 143.395 46.5801 143.61 47.1113C143.828 47.6426 143.938 48.2051 143.938 48.7988C143.938 49.3848 143.828 49.9434 143.61 50.4746C143.391 51.0059 143.09 51.4688 142.707 51.8633C142.324 52.2539 141.856 52.5664 141.301 52.8008C140.75 53.0312 140.16 53.1465 139.531 53.1465C138.692 53.1465 137.936 52.9512 137.264 52.5605C136.592 52.166 136.073 51.6387 135.705 50.9785C135.338 50.3184 135.155 49.5918 135.155 48.7988ZM136.701 48.7988C136.701 49.3418 136.821 49.8418 137.059 50.2988C137.301 50.752 137.641 51.1133 138.078 51.3828C138.52 51.6523 139.012 51.7871 139.555 51.7871C140.098 51.7871 140.586 51.6543 141.02 51.3887C141.457 51.1191 141.795 50.7578 142.033 50.3047C142.272 49.8516 142.391 49.3496 142.391 48.7988C142.391 48.2559 142.27 47.7578 142.028 47.3047C141.785 46.8477 141.444 46.4844 141.002 46.2148C140.565 45.9453 140.074 45.8105 139.531 45.8105C138.989 45.8105 138.498 45.9453 138.061 46.2148C137.627 46.4805 137.291 46.8398 137.053 47.293C136.819 47.7461 136.701 48.248 136.701 48.7988ZM145.719 44.5977H149.463C150.436 44.5977 151.199 44.8398 151.754 45.3242C152.309 45.8086 152.586 46.459 152.586 47.2754C152.586 47.9395 152.406 48.4863 152.047 48.916C151.688 49.3418 151.199 49.6426 150.582 49.8184L152.85 53H151.11L149.024 50.0703H147.196V53H145.719V44.5977ZM147.196 48.7637H149.358C149.885 48.7637 150.305 48.6348 150.617 48.377C150.93 48.1191 151.086 47.7715 151.086 47.334C151.086 46.8887 150.934 46.5469 150.629 46.3086C150.324 46.0664 149.897 45.9453 149.346 45.9453H147.196V48.7637ZM153.225 44.5977H154.965L157.315 48.3184L159.694 44.5977H161.387L158.047 49.6543V53H156.559V49.6895L153.225 44.5977ZM165.905 48.7988C165.905 48.2129 166.014 47.6562 166.233 47.1289C166.451 46.5977 166.752 46.1367 167.135 45.7461C167.518 45.3516 167.985 45.0391 168.535 44.8086C169.086 44.5742 169.676 44.457 170.305 44.457C170.938 44.457 171.528 44.5723 172.074 44.8027C172.621 45.0293 173.084 45.3379 173.463 45.7285C173.846 46.1191 174.145 46.5801 174.36 47.1113C174.578 47.6426 174.688 48.2051 174.688 48.7988C174.688 49.3848 174.578 49.9434 174.36 50.4746C174.141 51.0059 173.84 51.4688 173.457 51.8633C173.074 52.2539 172.606 52.5664 172.051 52.8008C171.5 53.0312 170.91 53.1465 170.281 53.1465C169.442 53.1465 168.686 52.9512 168.014 52.5605C167.342 52.166 166.823 51.6387 166.455 50.9785C166.088 50.3184 165.905 49.5918 165.905 48.7988ZM167.451 48.7988C167.451 49.3418 167.571 49.8418 167.809 50.2988C168.051 50.752 168.391 51.1133 168.828 51.3828C169.27 51.6523 169.762 51.7871 170.305 51.7871C170.848 51.7871 171.336 51.6543 171.77 51.3887C172.207 51.1191 172.545 50.7578 172.783 50.3047C173.022 49.8516 173.141 49.3496 173.141 48.7988C173.141 48.2559 173.02 47.7578 172.778 47.3047C172.535 46.8477 172.194 46.4844 171.752 46.2148C171.315 45.9453 170.824 45.8105 170.281 45.8105C169.739 45.8105 169.248 45.9453 168.811 46.2148C168.377 46.4805 168.041 46.8398 167.803 47.293C167.569 47.7461 167.451 48.248 167.451 48.7988ZM176.469 44.5977H182.721V45.9453H177.946V48.2363H182.182V49.5781H177.946V53H176.469V44.5977ZM187.813 49.4375V44.5977H189.289V49.3789C189.289 50.1484 189.475 50.7402 189.846 51.1543C190.221 51.5684 190.742 51.7754 191.41 51.7754C192.074 51.7754 192.592 51.5762 192.963 51.1777C193.338 50.7793 193.526 50.1992 193.526 49.4375V44.5977H195.002V49.3613C195.002 50.5879 194.68 51.5234 194.035 52.168C193.395 52.8125 192.512 53.1348 191.387 53.1348C190.274 53.1348 189.399 52.8184 188.762 52.1855C188.129 51.5527 187.813 50.6367 187.813 49.4375ZM196.725 53V51.9102L201.682 45.9102H196.883V44.5977H203.604V45.6934L198.647 51.6934H203.604V53H196.725ZM205.449 44.5977H209.217C210.186 44.5977 210.918 44.8457 211.414 45.3418C211.789 45.7168 211.977 46.1895 211.977 46.7598C211.977 47.5957 211.578 48.2207 210.781 48.6348C211.317 48.8145 211.727 49.0664 212.012 49.3906C212.301 49.7109 212.446 50.1465 212.446 50.6973C212.446 51.4355 212.166 52.0039 211.608 52.4023C211.049 52.8008 210.293 53 209.34 53H205.449V44.5977ZM206.903 51.6934H209.352C209.864 51.6934 210.26 51.5938 210.541 51.3945C210.826 51.1914 210.969 50.8984 210.969 50.5156C210.969 50.1562 210.824 49.8789 210.535 49.6836C210.246 49.4883 209.815 49.3906 209.24 49.3906H206.903V51.6934ZM206.903 48.1426H208.918C209.41 48.1426 209.797 48.0449 210.078 47.8496C210.364 47.6504 210.506 47.3594 210.506 46.9766C210.506 46.6445 210.377 46.3848 210.119 46.1973C209.862 46.0059 209.498 45.9102 209.03 45.9102H206.903V48.1426ZM214.11 44.5977H220.338V45.9219H215.586V48.1016H219.799V49.4258H215.586V51.6816H220.397V53H214.11V44.5977ZM222.149 44.5977H223.625V48.8223L227.621 44.5977H229.432L225.94 48.2129L229.59 53H227.803L224.932 49.2207L223.625 50.5625V53H222.149V44.5977ZM230.932 44.5977H232.408V53H230.932V44.5977ZM234.09 51.7754L234.981 50.7207C235.399 51.084 235.819 51.3574 236.24 51.541C236.662 51.7207 237.125 51.8105 237.629 51.8105C238.086 51.8105 238.448 51.7148 238.713 51.5234C238.983 51.3281 239.117 51.0645 239.117 50.7324C239.117 50.5215 239.069 50.3477 238.971 50.2109C238.873 50.0703 238.686 49.9375 238.408 49.8125C238.135 49.6836 237.74 49.5586 237.225 49.4375C236.74 49.3242 236.34 49.207 236.024 49.0859C235.707 48.9609 235.42 48.8027 235.162 48.6113C234.908 48.4199 234.721 48.1875 234.6 47.9141C234.483 47.6367 234.424 47.3047 234.424 46.918C234.424 46.1992 234.692 45.6133 235.227 45.1602C235.766 44.707 236.455 44.4805 237.295 44.4805C238.455 44.4805 239.471 44.832 240.342 45.5352L239.551 46.6543C238.774 46.0762 238.014 45.7871 237.272 45.7871C236.85 45.7871 236.516 45.8828 236.27 46.0742C236.024 46.2656 235.901 46.5098 235.901 46.8066C235.901 47.0293 235.955 47.2129 236.065 47.3574C236.178 47.502 236.375 47.6348 236.656 47.7559C236.938 47.877 237.35 48.002 237.893 48.1309C238.826 48.3574 239.51 48.6582 239.944 49.0332C240.377 49.4043 240.594 49.9297 240.594 50.6094C240.594 51.3828 240.317 51.9941 239.762 52.4434C239.211 52.8926 238.489 53.1172 237.594 53.1172C236.258 53.1172 235.09 52.6699 234.09 51.7754ZM241.543 45.9688V44.5977H248.358V45.9688H245.698V53H244.209V45.9688H241.543ZM248.123 53L251.821 44.5391H253.192L256.883 53H255.324L254.475 50.9727H250.502L249.635 53H248.123ZM251.041 49.666H253.936L252.483 46.3027L251.041 49.666ZM258.324 44.5977H259.696L264.196 50.4102V44.5977H265.649V53H264.412L259.778 47.0234V53H258.324V44.5977Z" fill="white"/>
</svg>
