<svg width="59" height="52" viewBox="0 0 59 52" fill="none" xmlns="http://www.w3.org/2000/svg">
<g clip-path="url(#clip0_153_3945)">
<path d="M29.0944 22.8312C28.4042 22.8353 27.7307 23.0419 27.1588 23.4251C26.5869 23.8083 26.1423 24.3508 25.881 24.9843C25.6197 25.6177 25.5534 26.3137 25.6906 26.9844C25.8278 27.6551 26.1622 28.2706 26.6518 28.753C27.1413 29.2355 27.7639 29.5635 28.4412 29.6955C29.1185 29.8275 29.82 29.7577 30.4573 29.4948C31.0946 29.232 31.6391 28.7879 32.0221 28.2186C32.4051 27.6492 32.6096 26.9802 32.6095 26.2958C32.6067 25.3742 32.2348 24.4914 31.5756 23.8417C30.9164 23.192 30.0239 22.8285 29.0944 22.8312ZM17.781 22.8312C17.0908 22.8353 16.4172 23.0419 15.8453 23.4251C15.2734 23.8083 14.8288 24.3508 14.5675 24.9843C14.3062 25.6177 14.24 26.3137 14.3772 26.9844C14.5143 27.6551 14.8488 28.2706 15.3383 28.753C15.8278 29.2355 16.4505 29.5635 17.1277 29.6955C17.805 29.8275 18.5065 29.7577 19.1438 29.4948C19.7811 29.232 20.3256 28.7879 20.7087 28.2186C21.0917 27.6492 21.2961 26.9802 21.2961 26.2958C21.2933 25.3743 20.9214 24.4916 20.2623 23.8419C19.6032 23.1921 18.7108 22.8286 17.7814 22.8312H17.781ZM40.4102 22.8312C39.72 22.8353 39.0465 23.0419 38.4746 23.4251C37.9027 23.8083 37.4581 24.3508 37.1968 24.9843C36.9355 25.6177 36.8693 26.3137 37.0064 26.9844C37.1436 27.6551 37.478 28.2706 37.9676 28.753C38.4571 29.2355 39.0797 29.5635 39.757 29.6955C40.4343 29.8275 41.1358 29.7577 41.7731 29.4948C42.4104 29.232 42.9549 28.7879 43.3379 28.2186C43.721 27.6492 43.9254 26.9802 43.9254 26.2958C43.924 25.8395 43.832 25.3879 43.6546 24.9668C43.4772 24.5457 43.2179 24.1634 42.8915 23.8417C42.5651 23.5199 42.178 23.2651 41.7522 23.0917C41.3265 22.9184 40.8705 22.8298 40.4102 22.8312ZM56.1648 17.2129C54.5735 14.7579 52.3431 12.5847 49.5395 10.7517C44.1223 7.21556 37.0046 5.26728 29.4973 5.26728C27.0234 5.26445 24.5542 5.48052 22.119 5.91291C20.5976 4.46225 18.8929 3.21319 17.0477 2.19695C10.2101 -1.18834 4.18466 0.0721564 1.14001 1.15989C0.909371 1.24074 0.702841 1.37762 0.5393 1.55801C0.375759 1.73841 0.260422 1.95656 0.203828 2.19254C0.147235 2.42852 0.151191 2.6748 0.215333 2.90888C0.279476 3.14295 0.401761 3.35735 0.571012 3.53249C2.71816 5.73396 6.27045 10.0851 5.39754 14.0412C2.00279 17.4841 0.162109 21.6356 0.162109 25.9582C0.162109 30.3632 2.00279 34.5146 5.39754 37.9576C6.27086 41.9141 2.71857 46.267 0.571422 48.4684C0.402484 48.6435 0.280465 48.8577 0.216503 49.0916C0.152542 49.3255 0.148676 49.5715 0.205257 49.8072C0.261839 50.0429 0.377066 50.2608 0.540421 50.441C0.703775 50.6213 0.910053 50.758 1.14042 50.8389C4.18507 51.9265 10.2105 53.1898 17.0503 49.8029C18.8955 48.7865 20.6001 47.5374 22.1217 46.0869C24.5567 46.5194 27.0257 46.7356 29.4994 46.7329C37.0089 46.7329 44.1265 44.7871 49.5417 41.2511C52.3454 39.418 54.5757 37.2469 56.1668 34.7898C57.9398 32.0554 58.8372 29.1108 58.8372 26.0427C58.8349 22.8921 57.9376 19.9499 56.1648 17.2133V17.2129ZM29.1908 41.6304C26.0985 41.6395 23.0183 41.2468 20.0288 40.4624L17.967 42.432C16.8226 43.5206 15.5446 44.4619 14.1629 45.2337C12.4816 46.0685 10.6563 46.5809 8.78307 46.7439C8.88376 46.564 8.97575 46.382 9.07418 46.1999C11.1404 42.4299 11.6978 39.0419 10.7464 36.0357C7.36697 33.399 5.34028 30.0232 5.34028 26.3467C5.34028 17.9068 16.0191 11.0647 29.1908 11.0647C42.3626 11.0647 53.0435 17.9072 53.0435 26.3467C53.0435 34.7876 42.3647 41.6304 29.1908 41.6304Z" fill="white"/>
</g>
<defs>
<clipPath id="clip0_153_3945">
<rect width="59" height="52" fill="white"/>
</clipPath>
</defs>
</svg>
