<svg width="45" height="45" viewBox="0 0 45 45" fill="none" xmlns="http://www.w3.org/2000/svg">
<path d="M22.3815 0.714233C10.4215 0.714233 0.714844 10.4209 0.714844 22.3809C0.714844 34.3409 10.4215 44.0476 22.3815 44.0476C34.3415 44.0476 44.0482 34.3409 44.0482 22.3809C44.0482 10.4209 34.3415 0.714233 22.3815 0.714233ZM32.4348 15.4476C32.1098 18.8709 30.7015 27.1909 29.9865 31.0259C29.6832 32.6509 29.0765 33.1926 28.5132 33.2576C27.2565 33.3659 26.3032 32.4342 25.0898 31.6326C23.1832 30.3759 22.0998 29.5959 20.2582 28.3826C18.1132 26.9742 19.4998 26.1942 20.7348 24.9376C21.0598 24.6126 26.6065 19.5642 26.7148 19.1092C26.7299 19.0403 26.7279 18.9688 26.709 18.9008C26.6901 18.8328 26.6549 18.7705 26.6065 18.7192C26.4765 18.6109 26.3032 18.6542 26.1515 18.6759C25.9565 18.7192 22.9232 20.7342 17.0082 24.7209C16.1415 25.3059 15.3615 25.6092 14.6682 25.5876C13.8882 25.5659 12.4148 25.1542 11.3098 24.7859C9.94484 24.3526 8.88318 24.1142 8.96984 23.3559C9.01318 22.9659 9.55484 22.5759 10.5732 22.1642C16.8998 19.4126 21.1032 17.5926 23.2048 16.7259C29.2282 14.2126 30.4632 13.7792 31.2865 13.7792C31.4598 13.7792 31.8715 13.8226 32.1315 14.0392C32.3482 14.2126 32.4132 14.4509 32.4348 14.6242C32.4132 14.7542 32.4565 15.1442 32.4348 15.4476Z" fill="#F8F8F8"/>
</svg>
